<?xml version="1.0" encoding="UTF-8"?>
<svg width="250" height="175" version="1.1" viewBox="0 0 250 175" xmlns="http://www.w3.org/2000/svg">
 <script id="__gaOptOutExtension"/>
 <title>cutout</title>
 <desc>Created with Sketch.</desc>
 <g transform="matrix(0,1,1,0,31.276,925.63)">
  <path d="m-925.63-31.276v125l175-125z" fill="#d7d7d7"/>
  <path d="m-800.63-31.276 50 125v-125z" fill="#d7d7d7"/>
  <path d="m-800.63-31.276 11.111 27.778-11.111 7.9365z" fill="#afafaf"/>
  <g transform="rotate(180,-838.13,93.724)">
   <path d="m-925.63-31.276v125l175-125z" fill="#d7d7d7"/>
   <path d="m-800.63-31.276 50 125v-125z" fill="#d7d7d7"/>
   <path d="m-800.63-31.276 11.111 27.778-11.111 7.9365z" fill="#afafaf"/>
  </g>
 </g>
 <path d="m139.93 36.754-19.078 85.268c2.6349 1.2036 4.4171 4.3344 4.4171 7.8505 0 4.5028-2.9231 8.3747-6.8166 8.3747s-6.8166-3.8719-6.8166-8.3747c0-4.5029 2.9231-8.3748 6.8166-8.3747 0.1347 0 0.26794 6e-3 0.40018 0.0152 0.92145-4.4395 3.7571-18.549 2.9846-20.977-0.91117-2.8637-4.8165-4.1653-4.8165-4.1653zm24.033 13.613-36.05 44.551 3.2082-14.339zm-40.681 41.651a1.1686 1.1686 0 0 0-1.1686 1.1686 1.1686 1.1686 0 0 0 1.1686 1.1686 1.1686 1.1686 0 0 0 1.1686-1.1686 1.1686 1.1686 0 0 0-1.1686-1.1686zm-6.2019 1.4767-1.3359 3.4776 0.96695 0.32178s0.54749 0.21705 1.2477 0.60485c-0.0621 0.0105-0.12438 0.0136-0.18639 0.0273-2.4892 0.54498-13.29 10.056-16.674 13.073 0.0741 0.11 0.14567 0.22187 0.21302 0.33853 1.9468 3.3718 0.0554 7.8396-3.8443 10.091-3.8996 2.2514-8.7148 1.6555-10.662-1.7164-1.9467-3.3719-0.0546-7.8388 3.845-10.09 3.045-1.7581 6.6471-1.7805 9.0069-0.10042zm-21.507 16.737c-0.11835 0-0.23798-1.2e-4 -0.35834 4e-3 -1.1557 0.0427-2.3984 0.38578-3.5909 1.0743-3.18 1.8359-4.4123 5.2126-3.1322 7.4298 1.2802 2.2173 4.8211 2.8394 8.0012 1.0034 3.1799-1.8359 4.4115-5.2133 3.1314-7.4305-0.75006-1.2992-2.2762-2.0506-4.0512-2.0807zm22.878 13.213c-2.5603 0-4.869 2.7551-4.869 6.4271 0 3.6719 2.3087 6.4271 4.869 6.4271s4.869-2.7552 4.869-6.4271c0-3.672-2.3087-6.4271-4.869-6.4271z" color="#000000" fill="#d7d7d7" stroke-linecap="square" stroke-width=".38952" style="-inkscape-stroke:none"/>
</svg>
